<?xml version="1.0" encoding="iso-8859-1"?>
<!-- Generator: Adobe Illustrator 16.0.0, SVG Export Plug-In . SVG Version: 6.00 Build 0)  -->
<!DOCTYPE svg PUBLIC "-//W3C//DTD SVG 1.1//EN" "http://www.w3.org/Graphics/SVG/1.1/DTD/svg11.dtd">
<svg version="1.1" id="Capa_1" xmlns="http://www.w3.org/2000/svg" xmlns:xlink="http://www.w3.org/1999/xlink" x="0px" y="0px"
	 width="488.646px" height="488.646px" viewBox="0 0 488.646 488.646" style="enable-background:new 0 0 488.646 488.646;"
	 xml:space="preserve">
<g>
	<path d="M336.074,242.557c0,50.687-41.083,91.764-91.757,91.764c-50.674,0-91.758-41.077-91.758-91.764
		c0-50.68,41.083-91.758,91.758-91.758C294.991,150.799,336.074,191.876,336.074,242.557z M417.828,218.939
		c-6.57,13.899-13.816,27.535-21.623,40.886c2.266,4.02,4.53,8.057,6.832,12.337c11.654,22.152,23.869,47.781,33.266,77.509
		c4.572,14.882,8.427,30.805,10.047,47.903c1.437,16.971,1.363,35.671-6.741,54.065c-4.073,9.073-10.613,17.774-19.309,24.132
		c-0.962,0.688-1.687,1.333-2.844,2.063l-3.787,2.192c-2.606,1.602-5.018,2.442-7.538,3.532c-5.036,1.997-10.267,3.245-15.54,4.116
		c-21.221,3.032-41.899-1.431-61.184-8.026c-30.567-10.898-58.761-27.564-85.09-47.166c-26.327,19.607-54.517,36.268-85.087,47.166
		c-19.293,6.602-39.963,11.059-61.187,8.026c-5.27-0.877-10.507-2.119-15.54-4.116c-2.518-1.097-4.932-1.937-7.538-3.532
		l-3.785-2.192c-1.166-0.73-1.881-1.376-2.844-2.063c-8.698-6.363-15.232-15.059-19.309-24.132
		c-8.108-18.395-8.187-37.095-6.741-54.065c1.626-17.093,5.474-33.021,10.044-47.903c9.396-29.728,21.61-55.356,33.265-77.509
		c2.302-4.28,4.564-8.317,6.835-12.337c-7.807-13.351-15.053-26.987-21.626-40.886C53.1,181.284,39.624,141.751,35.971,100.868
		c-1.602-20.341-0.715-41.479,7.538-61.3c4.153-9.797,10.577-19.038,18.999-25.814l1.574-1.267l0.786-0.637l0.393-0.311
		c0.036-0.042,1.12-0.798,0.834-0.578l2.874-1.772c1.641-1.129,4.473-2.469,6.984-3.653c5.063-2.271,9.84-3.51,14.809-4.463
		c19.866-3.24,37.997,1.363,54.072,7.033c16.143,5.855,30.604,13.573,43.866,21.729c21.355,13.363,39.613,27.84,55.625,41.79
		c16.015-13.95,34.27-28.434,55.624-41.79c13.263-8.162,27.725-15.874,43.867-21.729c16.075-5.669,34.208-10.263,54.071-7.033
		c4.969,0.953,9.749,2.191,14.809,4.463c2.515,1.185,5.347,2.524,6.984,3.653l2.874,1.772c-0.286-0.22,0.798,0.536,0.84,0.578
		l0.391,0.311l0.785,0.637l1.571,1.267c8.427,6.777,14.845,16.011,18.998,25.814c8.257,19.82,9.14,40.959,7.538,61.3
		C449.01,141.751,435.535,181.284,417.828,218.939z M217.872,411.312c-29.66-25.483-56.66-54.535-80.928-85.607
		c-15.644-20.35-30.172-41.602-43.185-63.626c-1.885,3.715-3.766,7.405-5.647,11.345c-10.607,22.48-21.288,48.688-28.041,78.337
		c-3.331,14.784-5.812,30.421-6.086,46.423c-0.024,15.869,2.095,32.62,9.709,46.064c7.511,13.506,20.98,21.44,36.706,22.135
		c15.795,0.907,32.854-4.317,49.209-11.387C173.473,444.339,196.194,428.909,217.872,411.312z M394.878,262.078
		c-13.013,22.024-27.542,43.276-43.185,63.626c-24.271,31.072-51.271,60.131-80.931,85.607
		c21.677,17.598,44.401,33.027,68.266,43.678c16.355,7.069,33.404,12.3,49.206,11.387c15.723-0.688,29.197-8.629,36.705-22.135
		c7.618-13.438,9.736-30.202,9.713-46.064c-0.274-16.002-2.753-31.639-6.09-46.424c-6.752-29.647-17.433-55.85-28.04-78.336
		C398.641,269.477,396.753,265.786,394.878,262.078z M336.902,170.872c0,0,3.112,4.064,8.945,11.697
		c5.693,7.73,14.012,19.104,23.949,34.044c1.674,2.494,3.434,5.243,5.176,7.937c4.085-6.996,8.122-14.017,11.922-21.108
		c18.012-34.45,33.289-70.208,39.3-105.756c2.728-17.595,3.55-35.396-1.285-50.442c-2.381-7.462-6.156-14.042-11.368-19.147
		l-0.975-0.968l-0.48-0.487l-0.244-0.244c-0.164-0.149,0.664,0.469,0.146,0.089l-2.703-2.025c-1.949-1.598-3.216-2.104-4.646-2.996
		c-2.941-1.696-6.662-3.112-10.26-4.147c-14.9-4.013-31.64-1.87-46.984,2.098c-15.43,4.271-29.946,10.574-43.428,17.488
		c-21.623,11.168-40.444,24.208-56.913,37.12c2.844,2.506,5.645,5.002,8.351,7.457c18.384,17.01,33.509,32.717,45.45,46.104
		c11.971,13.363,20.91,24.256,26.962,31.709C333.736,166.838,336.902,170.872,336.902,170.872s-3.202-4.004-9.194-11.512
		c-6.174-7.344-15.04-18.313-27.347-31.344c-12.257-13.064-27.742-28.403-46.847-44.396c-2.962-2.469-6.056-4.962-9.197-7.462
		c-3.142,2.494-6.235,4.993-9.204,7.456c-19.099,15.993-34.586,31.332-46.844,44.396c-12.309,13.037-21.175,24.006-27.35,31.344
		c-5.992,7.508-9.191,11.508-9.191,11.508s3.163-4.025,9.091-11.584c6.056-7.45,14.991-18.344,26.962-31.706
		c11.941-13.381,27.066-29.094,45.45-46.104c2.704-2.463,5.504-4.95,8.348-7.456C225.112,61.1,206.293,48.06,184.671,36.893
		c-13.481-6.908-27.998-13.217-43.428-17.488c-15.348-3.967-32.087-6.104-46.984-2.098c-3.599,1.035-7.329,2.451-10.263,4.146
		c-1.428,0.898-2.695,1.404-4.646,2.993l-2.7,2.027c-0.518,0.387,0.313-0.237,0.143-0.088l-0.241,0.243l-0.481,0.487l-0.974,0.965
		c-5.212,5.109-8.991,11.686-11.372,19.15c-4.832,15.047-4.01,32.848-1.285,50.443c6.01,35.548,21.288,71.307,39.299,105.756
		c3.799,7.091,7.84,14.111,11.922,21.108c1.742-2.701,3.511-5.444,5.176-7.938c9.94-14.939,18.258-26.314,23.949-34.048
		c5.836-7.629,8.948-11.697,8.948-11.697s-3.072,4.099-8.841,11.78c-5.575,7.819-13.959,19.141-23.513,34.319
		c-1.689,2.664-3.458,5.586-5.218,8.476c15.606,26.662,33.128,52.645,52.352,77.366c23.72,30.811,49.925,59.612,77.804,85.589
		c27.882-25.977,54.084-54.778,77.807-85.583c19.218-24.722,36.742-50.704,52.349-77.366c-1.76-2.896-3.525-5.818-5.218-8.476
		c-9.548-15.174-17.939-26.5-23.511-34.318C339.972,174.967,336.902,170.872,336.902,170.872z"/>
</g>
<g>
</g>
<g>
</g>
<g>
</g>
<g>
</g>
<g>
</g>
<g>
</g>
<g>
</g>
<g>
</g>
<g>
</g>
<g>
</g>
<g>
</g>
<g>
</g>
<g>
</g>
<g>
</g>
<g>
</g>
</svg>
